<svg xmlns="http://www.w3.org/2000/svg" xmlns:xlink="http://www.w3.org/1999/xlink" width="80" height="80.053" viewBox="0 0 80 80.053">
  <defs>
    <clipPath id="clip-path">
      <rect id="Rectangle_413" data-name="Rectangle 413" width="80" height="80.053" transform="translate(0 0)" fill="#fff"/>
    </clipPath>
  </defs>
  <g id="Group_316" data-name="Group 316" transform="translate(0 0)" style="isolation: isolate">
    <g id="Group_315" data-name="Group 315" clip-path="url(#clip-path)">
      <path id="Path_208" data-name="Path 208" d="M35.906,20.22a1,1,0,0,0-1,1V58.833a1,1,0,0,0,2,0V21.22a1,1,0,0,0-1-1" fill="#fff"/>
      <path id="Path_209" data-name="Path 209" d="M44.094,20.22a1,1,0,0,0-1,1V58.833a1,1,0,0,0,2,0V21.22a1,1,0,0,0-1-1" fill="#fff"/>
      <path id="Path_210" data-name="Path 210" d="M40,0A40.027,40.027,0,1,0,80,40.027,40.059,40.059,0,0,0,40,0m0,78.053A38.027,38.027,0,1,1,78,40.027,38.057,38.057,0,0,1,40,78.053" fill="#fff"/>
    </g>
  </g>
</svg>
